<mxfile host="app.diagrams.net" modified="2021-02-06T09:10:24.795Z" agent="5.0 (Macintosh; Intel Mac OS X 10_15_7) AppleWebKit/537.36 (KHTML, like Gecko) Chrome/88.0.4324.150 Safari/537.36" etag="hs6K0zCm9xW_QPFBr0fx" version="13.10.0" type="github">
  <diagram id="Oztz5O04aBfHfzCUun0W" name="第 1 页">
    <mxGraphModel dx="740" dy="490" grid="1" gridSize="10" guides="1" tooltips="1" connect="1" arrows="1" fold="1" page="1" pageScale="1" pageWidth="827" pageHeight="1169" math="0" shadow="0">
      <root>
        <mxCell id="0" />
        <mxCell id="1" parent="0" />
        <mxCell id="juxwLbaIbX179z6gjjst-1" value="用户" style="shape=umlActor;verticalLabelPosition=bottom;verticalAlign=top;html=1;outlineConnect=0;" vertex="1" parent="1">
          <mxGeometry x="100" y="100" width="30" height="60" as="geometry" />
        </mxCell>
        <mxCell id="juxwLbaIbX179z6gjjst-3" value="" style="rounded=1;whiteSpace=wrap;html=1;" vertex="1" parent="1">
          <mxGeometry x="200" y="80" width="240" height="310" as="geometry" />
        </mxCell>
        <mxCell id="juxwLbaIbX179z6gjjst-4" value="快递员1" style="shape=umlActor;verticalLabelPosition=bottom;verticalAlign=top;html=1;outlineConnect=0;" vertex="1" parent="1">
          <mxGeometry x="100" y="240" width="30" height="60" as="geometry" />
        </mxCell>
        <mxCell id="juxwLbaIbX179z6gjjst-10" value="位置信息" style="ellipse;whiteSpace=wrap;html=1;" vertex="1" parent="1">
          <mxGeometry x="270" y="270" width="120" height="80" as="geometry" />
        </mxCell>
        <mxCell id="juxwLbaIbX179z6gjjst-15" value="" style="endArrow=none;html=1;" edge="1" parent="1">
          <mxGeometry width="50" height="50" relative="1" as="geometry">
            <mxPoint x="260" y="170" as="sourcePoint" />
            <mxPoint x="140" y="120" as="targetPoint" />
          </mxGeometry>
        </mxCell>
        <mxCell id="juxwLbaIbX179z6gjjst-18" value="快递员n" style="shape=umlActor;verticalLabelPosition=bottom;verticalAlign=top;html=1;outlineConnect=0;" vertex="1" parent="1">
          <mxGeometry x="100" y="330" width="30" height="60" as="geometry" />
        </mxCell>
        <mxCell id="juxwLbaIbX179z6gjjst-19" value="订单管理&lt;br&gt;订单匹配" style="ellipse;whiteSpace=wrap;html=1;" vertex="1" parent="1">
          <mxGeometry x="270" y="130" width="120" height="80" as="geometry" />
        </mxCell>
        <mxCell id="juxwLbaIbX179z6gjjst-20" value="" style="endArrow=none;html=1;" edge="1" parent="1">
          <mxGeometry width="50" height="50" relative="1" as="geometry">
            <mxPoint x="260" y="190" as="sourcePoint" />
            <mxPoint x="140" y="265" as="targetPoint" />
          </mxGeometry>
        </mxCell>
        <mxCell id="juxwLbaIbX179z6gjjst-21" value="" style="endArrow=none;html=1;" edge="1" parent="1">
          <mxGeometry width="50" height="50" relative="1" as="geometry">
            <mxPoint x="260" y="200" as="sourcePoint" />
            <mxPoint x="150" y="342.5" as="targetPoint" />
          </mxGeometry>
        </mxCell>
        <mxCell id="juxwLbaIbX179z6gjjst-22" value="" style="endArrow=none;html=1;" edge="1" parent="1">
          <mxGeometry width="50" height="50" relative="1" as="geometry">
            <mxPoint x="260" y="310" as="sourcePoint" />
            <mxPoint x="140" y="275" as="targetPoint" />
          </mxGeometry>
        </mxCell>
        <mxCell id="juxwLbaIbX179z6gjjst-23" value="" style="endArrow=none;html=1;" edge="1" parent="1">
          <mxGeometry width="50" height="50" relative="1" as="geometry">
            <mxPoint x="260" y="330" as="sourcePoint" />
            <mxPoint x="150" y="352.5" as="targetPoint" />
          </mxGeometry>
        </mxCell>
      </root>
    </mxGraphModel>
  </diagram>
</mxfile>
